<svg width="128" height="32" viewBox="0 0 128 32" fill="none" xmlns="http://www.w3.org/2000/svg">
    <path d="M6.30397 18.2065C5.28773 18.2065 4.35017 18.0885 3.49128 17.8525C2.63895 17.6099 1.80629 17.2034 0.993293 16.633V13.2499H3.05856L3.37326 15.3348C3.69453 15.584 4.11086 15.7839 4.62226 15.9347C5.14021 16.0855 5.70078 16.1609 6.30397 16.1609C6.85471 16.1609 7.31693 16.0855 7.69065 15.9347C8.07092 15.7774 8.3594 15.5577 8.55609 15.2758C8.75278 14.9873 8.85113 14.653 8.85113 14.2727C8.85113 13.9055 8.76262 13.5843 8.58559 13.3089C8.40857 13.027 8.11681 12.7746 7.71032 12.5516C7.31038 12.3222 6.7662 12.1058 6.07777 11.9026C4.9763 11.5944 4.05841 11.2436 3.32409 10.8503C2.58977 10.4569 2.03904 9.98481 1.67188 9.43408C1.31128 8.87678 1.13098 8.21459 1.13098 7.44749C1.13098 6.68039 1.34078 6.0018 1.76039 5.41173C2.18656 4.8151 2.77335 4.34632 3.52078 4.00538C4.27477 3.66445 5.14021 3.49071 6.11711 3.48415C7.20547 3.47104 8.16599 3.60544 8.99865 3.88737C9.83131 4.16929 10.5427 4.54956 11.1328 5.02818V8.17525H9.11666L8.75278 6.1985C8.49053 6.02147 8.14632 5.87068 7.72015 5.74611C7.29399 5.62153 6.80226 5.55925 6.24496 5.55925C5.76635 5.55925 5.34346 5.63465 4.9763 5.78544C4.60914 5.92968 4.32066 6.14277 4.11086 6.42469C3.90105 6.70662 3.79615 7.04427 3.79615 7.43765C3.79615 7.77859 3.88794 8.0769 4.07152 8.3326C4.2551 8.5883 4.56325 8.82433 4.99597 9.04069C5.42869 9.25705 6.01549 9.47997 6.75636 9.70944C8.32334 10.1356 9.51005 10.7126 10.3165 11.4403C11.1295 12.1615 11.536 13.0991 11.536 14.253C11.536 15.0529 11.3163 15.7512 10.8771 16.3478C10.4443 16.9379 9.83459 17.3968 9.04782 17.7246C8.26761 18.0459 7.35299 18.2065 6.30397 18.2065ZM12.7358 18V16.3871L14.1618 16.0921V9.27672L12.6178 8.98168V7.35898H16.8368V16.0921L18.2628 16.3871V18H12.7358ZM14.0635 5.02818V2.65804H16.8368V5.02818H14.0635ZM19.2168 18V16.3871L20.6526 16.0921V9.27672L19.1086 8.98168V7.35898H23.1211L23.2391 8.75549C23.5866 8.25065 24.0193 7.86054 24.5373 7.58517C25.0552 7.30325 25.6552 7.16229 26.337 7.16229C27.0254 7.16229 27.6155 7.31636 28.1072 7.62451C28.599 7.93266 28.9694 8.39489 29.2186 9.01119C29.5464 8.43423 29.9758 7.98183 30.5069 7.65401C31.038 7.3262 31.6575 7.16229 32.3656 7.16229C33.4278 7.16229 34.2637 7.52289 34.8734 8.24409C35.4832 8.96529 35.7881 10.0602 35.7881 11.5288V16.0921L37.2239 16.3871V18H31.7952V16.3871L33.1131 16.0921V11.519C33.1131 10.6732 32.9721 10.0864 32.6902 9.75862C32.4148 9.42424 32.005 9.25705 31.4608 9.25705C30.9691 9.25705 30.5593 9.40785 30.2315 9.70944C29.9037 10.011 29.6775 10.3979 29.5529 10.8699V16.0921L30.8019 16.3871V18H25.6388V16.3871L26.8878 16.0921V11.519C26.8878 10.706 26.7468 10.1258 26.4649 9.77829C26.1829 9.4308 25.7699 9.25705 25.2257 9.25705C24.7799 9.25705 24.3996 9.34884 24.0849 9.53242C23.7702 9.70944 23.5145 9.96514 23.3178 10.2995V16.0921L24.6356 16.3871V18H19.2168ZM38.168 22.0912V20.4685L39.5842 20.1734V9.27672L38.0303 8.98168V7.35898H42.0134L42.1609 8.60797C42.4821 8.14247 42.8722 7.78514 43.3312 7.536C43.7901 7.28686 44.3343 7.16229 44.9637 7.16229C45.8226 7.16229 46.5569 7.39832 47.1667 7.87038C47.783 8.33588 48.255 8.99152 48.5829 9.83729C48.9107 10.6831 49.0746 11.6665 49.0746 12.7877V12.9942C49.0746 14.0367 48.9107 14.9513 48.5829 15.738C48.255 16.5183 47.783 17.1247 47.1667 17.5574C46.5569 17.9902 45.8193 18.2065 44.9539 18.2065C44.3638 18.2065 43.8459 18.1016 43.4 17.8918C42.9542 17.682 42.5706 17.3739 42.2494 16.9674V20.1734L43.7049 20.4685V22.0912H38.168ZM44.1475 16.1511C44.9211 16.1511 45.4882 15.8659 45.8488 15.2955C46.2094 14.7251 46.3897 13.958 46.3897 12.9942V12.7877C46.3897 12.0861 46.3078 11.4731 46.1439 10.9486C45.9865 10.4175 45.7407 10.0045 45.4063 9.70944C45.0719 9.40785 44.6457 9.25705 44.1278 9.25705C43.7016 9.25705 43.3279 9.3554 43.0066 9.55209C42.6919 9.74223 42.4395 10.011 42.2494 10.3585V15.1283C42.4395 15.4561 42.6919 15.7085 43.0066 15.8856C43.3279 16.0626 43.7082 16.1511 44.1475 16.1511ZM50.0777 18V16.3871L51.5136 16.0921V4.57579L49.9695 4.28075V2.65804H54.1886V16.0921L55.6244 16.3871V18H50.0777ZM61.5055 18.2065C60.4958 18.2065 59.614 17.9836 58.86 17.5378C58.1126 17.0854 57.5323 16.4658 57.1193 15.679C56.7062 14.8857 56.4997 13.9809 56.4997 12.9647V12.5615C56.4997 11.519 56.6964 10.5913 57.0898 9.77829C57.4897 8.95874 58.047 8.31949 58.7617 7.86054C59.4763 7.39504 60.3024 7.16229 61.24 7.16229C62.2038 7.16229 63.0135 7.3557 63.6691 7.74253C64.3248 8.1228 64.8198 8.67026 65.1541 9.3849C65.4885 10.0995 65.6557 10.9584 65.6557 11.9616V13.4466H59.2731L59.2534 13.5056C59.2796 14.017 59.3943 14.4727 59.5976 14.8726C59.8008 15.266 60.086 15.5774 60.4532 15.8069C60.8204 16.0364 61.2662 16.1511 61.7907 16.1511C62.348 16.1511 62.8561 16.079 63.3151 15.9347C63.7806 15.7905 64.2231 15.5774 64.6427 15.2955L65.4098 16.9575C64.9837 17.3116 64.4428 17.6099 63.7871 17.8525C63.1315 18.0885 62.3709 18.2065 61.5055 18.2065ZM59.3026 11.6272H63.138V11.3715C63.138 10.9257 63.0725 10.5388 62.9414 10.211C62.8102 9.87663 62.607 9.61765 62.3316 9.43408C62.0628 9.2505 61.712 9.15871 61.2793 9.15871C60.8859 9.15871 60.5483 9.26689 60.2663 9.48325C59.9844 9.69305 59.7615 9.98153 59.5976 10.3487C59.4337 10.7093 59.3255 11.1191 59.2731 11.578L59.3026 11.6272ZM75.2936 18V16.3871L76.8376 16.0921V5.73627H74.0938L73.9069 7.5065H71.8908V3.68084H84.4791V7.5065H82.4532L82.2663 5.73627H79.5126V16.0921L81.0665 16.3871V18H75.2936ZM85.1872 18V16.3871L86.6132 16.0921V9.27672L85.079 8.98168V7.35898H89.0915L89.2095 8.68665L89.2292 8.91284C89.498 8.34244 89.8324 7.90971 90.2323 7.61468C90.6323 7.31308 91.1043 7.16229 91.6485 7.16229C91.8255 7.16229 92.0157 7.17868 92.2189 7.21146C92.4287 7.23768 92.6057 7.27374 92.75 7.31964L92.4451 9.78812L91.0388 9.70944C90.6126 9.68977 90.2618 9.76845 89.9865 9.94547C89.7177 10.1225 89.4849 10.3749 89.2882 10.7027V16.0921L90.7142 16.3871V18H85.1872ZM97.0575 18.2065C95.9888 18.2065 95.1463 17.9279 94.53 17.3706C93.9203 16.8067 93.6154 16.0364 93.6154 15.0595C93.6154 14.3907 93.7957 13.8039 94.1563 13.2991C94.5235 12.7877 95.0611 12.391 95.7692 12.1091C96.4839 11.8206 97.3526 11.6764 98.3754 11.6764H99.8899V10.8404C99.8899 10.3028 99.7293 9.87008 99.408 9.54226C99.0933 9.21444 98.6278 9.05053 98.0115 9.05053C97.6771 9.05053 97.3755 9.09314 97.1067 9.17838C96.8445 9.25705 96.6084 9.37179 96.3986 9.52259L96.1724 10.9486H94.2252L94.2055 8.25392C94.7431 7.92611 95.3332 7.66385 95.9757 7.46716C96.6248 7.26391 97.346 7.16229 98.1393 7.16229C99.5096 7.16229 100.588 7.48355 101.375 8.12608C102.168 8.76204 102.565 9.67666 102.565 10.8699V15.4037C102.565 15.5479 102.565 15.6889 102.565 15.8266C102.571 15.9642 102.585 16.0986 102.604 16.2298L103.696 16.3871V18H100.303C100.231 17.7968 100.162 17.5902 100.096 17.3804C100.037 17.1641 99.9948 16.9477 99.9686 16.7313C99.6211 17.1706 99.2048 17.5279 98.7196 17.8033C98.241 18.0721 97.687 18.2065 97.0575 18.2065ZM97.7165 16.1904C98.1688 16.1904 98.5917 16.0855 98.9851 15.8757C99.3851 15.6659 99.6867 15.4004 99.8899 15.0791V13.3482H98.3655C97.6771 13.3482 97.1559 13.5089 96.8018 13.8301C96.4543 14.1448 96.2806 14.5186 96.2806 14.9513C96.2806 15.3447 96.4052 15.6495 96.6543 15.8659C96.9035 16.0823 97.2575 16.1904 97.7165 16.1904ZM108.938 18.2065C108.092 18.2065 107.364 17.9902 106.754 17.5574C106.145 17.1247 105.676 16.5183 105.348 15.738C105.027 14.9513 104.866 14.0367 104.866 12.9942V12.7877C104.866 11.6665 105.027 10.6831 105.348 9.83729C105.676 8.99152 106.145 8.33588 106.754 7.87038C107.364 7.39832 108.089 7.16229 108.928 7.16229C109.531 7.16229 110.056 7.2803 110.501 7.51633C110.947 7.7458 111.331 8.0769 111.652 8.50962V4.57579L110.108 4.28075V2.65804H111.652H114.327V16.0921L115.753 16.3871V18H112.016L111.809 16.7117C111.475 17.2034 111.072 17.5771 110.6 17.8328C110.128 18.082 109.574 18.2065 108.938 18.2065ZM109.715 16.1118C110.154 16.1118 110.534 16.0167 110.855 15.8266C111.177 15.6364 111.442 15.3643 111.652 15.0103V10.4077C111.449 10.0471 111.187 9.76517 110.865 9.56192C110.544 9.35868 110.167 9.25705 109.734 9.25705C109.229 9.25705 108.813 9.40785 108.485 9.70944C108.164 10.0045 107.925 10.4175 107.767 10.9486C107.617 11.4731 107.541 12.0861 107.541 12.7877V12.9942C107.541 13.958 107.712 14.7185 108.053 15.2758C108.394 15.8331 108.948 16.1118 109.715 16.1118ZM121.792 18.2065C120.782 18.2065 119.9 17.9836 119.146 17.5378C118.399 17.0854 117.818 16.4658 117.405 15.679C116.992 14.8857 116.786 13.9809 116.786 12.9647V12.5615C116.786 11.519 116.982 10.5913 117.376 9.77829C117.776 8.95874 118.333 8.31949 119.048 7.86054C119.762 7.39504 120.588 7.16229 121.526 7.16229C122.49 7.16229 123.299 7.3557 123.955 7.74253C124.611 8.1228 125.106 8.67026 125.44 9.3849C125.775 10.0995 125.942 10.9584 125.942 11.9616V13.4466H119.559L119.539 13.5056C119.566 14.017 119.68 14.4727 119.884 14.8726C120.087 15.266 120.372 15.5774 120.739 15.8069C121.106 16.0364 121.552 16.1511 122.077 16.1511C122.634 16.1511 123.142 16.079 123.601 15.9347C124.067 15.7905 124.509 15.5774 124.929 15.2955L125.696 16.9575C125.27 17.3116 124.729 17.6099 124.073 17.8525C123.418 18.0885 122.657 18.2065 121.792 18.2065ZM119.589 11.6272H123.424V11.3715C123.424 10.9257 123.359 10.5388 123.227 10.211C123.096 9.87663 122.893 9.61765 122.618 9.43408C122.349 9.2505 121.998 9.15871 121.565 9.15871C121.172 9.15871 120.834 9.26689 120.552 9.48325C120.27 9.69305 120.048 9.98153 119.884 10.3487C119.72 10.7093 119.612 11.1191 119.559 11.578L119.589 11.6272Z" fill="black"/>
    <path d="M73.4862 24.3843H76.5756V29H75.954V24.932H74.1078V29H73.4862V24.3843ZM78.7367 29.0615C78.5275 29.0615 78.3347 29.0267 78.1582 28.9569C77.9818 28.8831 77.828 28.7784 77.6967 28.6431C77.5695 28.5077 77.469 28.3415 77.3951 28.1446C77.3254 27.9435 77.2905 27.7158 77.2905 27.4614C77.2905 27.2071 77.3254 26.9793 77.3951 26.7783C77.469 26.5773 77.5695 26.4091 77.6967 26.2737C77.828 26.1342 77.9818 26.0275 78.1582 25.9536C78.3347 25.8798 78.5275 25.8429 78.7367 25.8429C78.9378 25.8429 79.1265 25.8798 79.3029 25.9536C79.4794 26.0234 79.6332 26.128 79.7645 26.2675C79.8958 26.407 79.9984 26.5773 80.0722 26.7783C80.1461 26.9752 80.183 27.2009 80.183 27.4553C80.183 27.7097 80.1461 27.9374 80.0722 28.1384C79.9984 28.3353 79.8958 28.5036 79.7645 28.6431C79.6373 28.7784 79.4855 28.8831 79.3091 28.9569C79.1327 29.0267 78.9419 29.0615 78.7367 29.0615ZM78.7367 28.5446C78.8475 28.5446 78.9521 28.5241 79.0506 28.483C79.1532 28.442 79.2414 28.3764 79.3152 28.2861C79.3932 28.1958 79.4527 28.083 79.4937 27.9476C79.5388 27.8122 79.5614 27.6481 79.5614 27.4553C79.5614 27.2665 79.5388 27.1024 79.4937 26.9629C79.4486 26.8234 79.387 26.7106 79.3091 26.6245C79.2352 26.5342 79.1491 26.4685 79.0506 26.4275C78.9521 26.3824 78.8475 26.3598 78.7367 26.3598C78.6219 26.3598 78.5131 26.3824 78.4106 26.4275C78.3121 26.4685 78.2259 26.5342 78.1521 26.6245C78.0782 26.7106 78.0187 26.8234 77.9736 26.9629C77.9326 27.1024 77.9121 27.2686 77.9121 27.4614C77.9121 27.6543 77.9326 27.8184 77.9736 27.9538C78.0187 28.0892 78.0782 28.202 78.1521 28.2923C78.2259 28.3784 78.3121 28.442 78.4106 28.483C78.5131 28.5241 78.6219 28.5446 78.7367 28.5446ZM82.1785 28.5446C82.2893 28.5446 82.396 28.5241 82.4985 28.483C82.6011 28.442 82.6914 28.3764 82.7693 28.2861C82.8473 28.1958 82.9088 28.083 82.9539 27.9476C82.9991 27.8081 83.0216 27.6399 83.0216 27.443C83.0216 27.2542 82.9991 27.0922 82.9539 26.9568C82.9088 26.8173 82.8473 26.7045 82.7693 26.6183C82.6914 26.528 82.6011 26.4624 82.4985 26.4214C82.396 26.3803 82.2872 26.3598 82.1724 26.3598C81.9344 26.3598 81.7395 26.4296 81.5877 26.5691C81.4359 26.7086 81.36 26.9199 81.36 27.203V27.6338C81.36 27.7856 81.3805 27.9189 81.4215 28.0338C81.4667 28.1446 81.5262 28.2389 81.6 28.3169C81.6739 28.3907 81.76 28.4482 81.8585 28.4892C81.9611 28.5261 82.0677 28.5446 82.1785 28.5446ZM80.7692 25.9044H81.3292V26.3414H81.3723C81.4585 26.1978 81.5795 26.0788 81.7354 25.9844C81.8954 25.89 82.1006 25.8429 82.3508 25.8429C82.5396 25.8429 82.7119 25.8818 82.8678 25.9598C83.0278 26.0336 83.1652 26.1403 83.2801 26.2798C83.395 26.4152 83.4832 26.5814 83.5448 26.7783C83.6104 26.9752 83.6432 27.1968 83.6432 27.443C83.6432 27.6973 83.6104 27.9251 83.5448 28.1261C83.4832 28.3271 83.395 28.4974 83.2801 28.6369C83.1652 28.7764 83.0278 28.8831 82.8678 28.9569C82.7078 29.0267 82.5334 29.0615 82.3447 29.0615C82.119 29.0615 81.9241 29.0185 81.76 28.9323C81.6 28.842 81.4708 28.721 81.3723 28.5692H81.3292L81.36 29.0615V30.5386H80.7692V25.9044ZM84.8445 26.4152H83.9337V25.9044H86.3462V26.4152H85.4353V29H84.8445V26.4152ZM87.8366 28.5754C87.931 28.5754 88.0233 28.5589 88.1135 28.5261C88.2038 28.4892 88.2838 28.4359 88.3535 28.3661C88.4274 28.2923 88.4848 28.202 88.5259 28.0953C88.571 27.9845 88.5936 27.8553 88.5936 27.7076V27.5414C88.3556 27.5414 88.1546 27.5517 87.9904 27.5722C87.8263 27.5927 87.693 27.6255 87.5904 27.6707C87.4878 27.7158 87.414 27.7753 87.3689 27.8492C87.3237 27.923 87.3012 28.0133 87.3012 28.1199C87.3012 28.2512 87.3401 28.36 87.4181 28.4461C87.5002 28.5323 87.6397 28.5754 87.8366 28.5754ZM87.615 29.0615C87.3032 29.0615 87.0694 28.9795 86.9134 28.8154C86.7575 28.6513 86.6796 28.442 86.6796 28.1876C86.6796 28.0112 86.7145 27.8574 86.7842 27.7261C86.854 27.5948 86.9647 27.4881 87.1165 27.406C87.2724 27.324 87.4714 27.2624 87.7135 27.2214C87.9556 27.1804 88.2489 27.1599 88.5936 27.1599V27.0183C88.5936 26.7968 88.53 26.6306 88.4028 26.5198C88.2756 26.405 88.0889 26.3475 87.8427 26.3475C87.6704 26.3475 87.5043 26.368 87.3442 26.4091C87.1842 26.4501 87.0263 26.5219 86.8704 26.6245V26.0706C87.014 25.9844 87.1822 25.9249 87.375 25.8921C87.5679 25.8593 87.7504 25.8429 87.9227 25.8429C88.3577 25.8429 88.6756 25.9475 88.8767 26.1567C89.0818 26.3619 89.1844 26.6511 89.1844 27.0245V29H88.6243V28.5138H88.5813C88.4828 28.6861 88.3618 28.8215 88.2182 28.92C88.0746 29.0144 87.8735 29.0615 87.615 29.0615ZM89.914 29.0431C89.8812 29.0431 89.8524 29.041 89.8278 29.0369C89.8032 29.0369 89.7806 29.0349 89.7601 29.0308C89.7396 29.0267 89.7191 29.0226 89.6986 29.0185V28.4646C89.7109 28.4687 89.7253 28.4728 89.7417 28.4769C89.754 28.481 89.7683 28.483 89.7848 28.483C89.8012 28.483 89.8176 28.483 89.834 28.483C89.9612 28.483 90.0617 28.4174 90.1355 28.2861C90.2135 28.1507 90.273 27.9661 90.314 27.7322C90.355 27.4984 90.3797 27.2255 90.3879 26.9137C90.4002 26.5978 90.4063 26.2614 90.4063 25.9044H92.4249V29H91.8341V26.4152H90.911C90.911 26.7557 90.8987 27.084 90.8741 27.3999C90.8535 27.7158 90.8064 27.9969 90.7325 28.243C90.6628 28.4851 90.5622 28.68 90.431 28.8277C90.3038 28.9713 90.1314 29.0431 89.914 29.0431ZM96.3858 27.7753C96.3038 27.8081 96.2115 27.8348 96.1089 27.8553C96.0104 27.8758 95.8771 27.8861 95.7089 27.8861C95.3232 27.8861 95.036 27.7938 94.8473 27.6091C94.6626 27.4204 94.5703 27.1291 94.5703 26.7352V25.9044H95.1611V26.7291C95.1611 26.9506 95.2145 27.1127 95.3211 27.2153C95.4278 27.3178 95.5981 27.3691 95.8319 27.3691C95.914 27.3691 96.0063 27.363 96.1089 27.3507C96.2115 27.3342 96.3038 27.3055 96.3858 27.2645V25.9044H96.9766V29H96.3858V27.7753ZM99.173 29.0615C98.693 29.0615 98.3155 28.9303 98.0406 28.6677C97.7698 28.4051 97.6344 28.003 97.6344 27.4614C97.6344 27.2071 97.6693 26.9793 97.739 26.7783C97.8088 26.5773 97.9052 26.4091 98.0283 26.2737C98.1514 26.1342 98.2991 26.0275 98.4714 25.9536C98.6437 25.8798 98.8345 25.8429 99.0438 25.8429C99.2243 25.8429 99.3925 25.8695 99.5484 25.9229C99.7043 25.9721 99.8377 26.0501 99.9484 26.1567C100.063 26.2593 100.154 26.3906 100.219 26.5506C100.285 26.7106 100.318 26.8973 100.318 27.1106C100.318 27.1927 100.314 27.2686 100.305 27.3383C100.297 27.4081 100.289 27.4594 100.281 27.4922H98.2745C98.2704 27.845 98.3545 28.1097 98.5268 28.2861C98.6991 28.4584 98.9391 28.5446 99.2468 28.5446C99.4315 28.5446 99.6058 28.522 99.77 28.4769C99.9341 28.4318 100.082 28.3559 100.213 28.2492V28.7969C100.11 28.879 99.9669 28.9446 99.7823 28.9938C99.6017 29.039 99.3986 29.0615 99.173 29.0615ZM99.7269 27.086C99.7187 26.9424 99.6941 26.8214 99.653 26.7229C99.612 26.6245 99.5587 26.5465 99.493 26.4891C99.4274 26.4275 99.3535 26.3844 99.2715 26.3598C99.1894 26.3311 99.1032 26.3167 99.013 26.3167C98.816 26.3167 98.6519 26.3783 98.5206 26.5014C98.3893 26.6245 98.3052 26.8193 98.2683 27.086H99.7269ZM102.279 29.0615C101.799 29.0615 101.428 28.9241 101.166 28.6492C100.903 28.3702 100.772 27.9743 100.772 27.4614C100.772 27.2071 100.809 26.9793 100.882 26.7783C100.96 26.5773 101.065 26.4091 101.196 26.2737C101.328 26.1342 101.484 26.0275 101.664 25.9536C101.849 25.8798 102.048 25.8429 102.261 25.8429C102.442 25.8429 102.591 25.8572 102.71 25.8859C102.833 25.9106 102.942 25.9475 103.036 25.9967V26.5691C102.93 26.4911 102.811 26.4398 102.679 26.4152C102.548 26.3865 102.427 26.3721 102.316 26.3721C102.185 26.3721 102.062 26.3947 101.947 26.4398C101.836 26.4809 101.74 26.5465 101.658 26.6368C101.576 26.727 101.51 26.8419 101.461 26.9814C101.416 27.1168 101.393 27.2768 101.393 27.4614C101.393 27.6502 101.416 27.8122 101.461 27.9476C101.51 28.083 101.576 28.1938 101.658 28.28C101.74 28.3661 101.838 28.4297 101.953 28.4707C102.072 28.5118 102.204 28.5323 102.347 28.5323C102.663 28.5323 102.907 28.4584 103.08 28.3107V28.8954C103.014 28.9323 102.915 28.9692 102.784 29.0062C102.657 29.0431 102.489 29.0615 102.279 29.0615ZM104.269 26.4152H103.358V25.9044H105.771V26.4152H104.86V29H104.269V26.4152ZM108.184 27.6584H106.861V29H106.27V25.9044H106.861V27.1476H108.184V25.9044H108.775V29H108.184V27.6584ZM109.641 25.9044H110.232V26.9383H110.644C110.903 26.9383 111.118 26.967 111.291 27.0245C111.463 27.0819 111.6 27.1578 111.703 27.2522C111.81 27.3466 111.884 27.4553 111.925 27.5784C111.97 27.7014 111.992 27.8266 111.992 27.9538C111.992 28.0851 111.97 28.2143 111.925 28.3415C111.884 28.4646 111.81 28.5754 111.703 28.6738C111.6 28.7723 111.463 28.8523 111.291 28.9138C111.118 28.9713 110.903 29 110.644 29H109.641V25.9044ZM110.7 28.52C110.926 28.52 111.094 28.4707 111.205 28.3723C111.315 28.2697 111.371 28.1322 111.371 27.9599C111.371 27.7958 111.315 27.6666 111.205 27.5722C111.094 27.4737 110.926 27.4245 110.7 27.4245H110.232V28.52H110.7ZM112.368 25.9044H112.958V29H112.368V25.9044ZM114.907 27.8492L114.163 29H113.578L114.606 27.4553L113.554 25.9044H114.249L114.975 27.0183L115.695 25.9044H116.28L115.277 27.4122L116.36 29H115.658L114.907 27.8492ZM118.356 29V25.9044H118.947V28.4892H120.19V25.9044H120.781V28.4892H121.304V29.8308H120.805L120.744 29H118.356ZM123.207 29.0615C122.727 29.0615 122.35 28.9303 122.075 28.6677C121.804 28.4051 121.669 28.003 121.669 27.4614C121.669 27.2071 121.703 26.9793 121.773 26.7783C121.843 26.5773 121.939 26.4091 122.062 26.2737C122.185 26.1342 122.333 26.0275 122.505 25.9536C122.678 25.8798 122.869 25.8429 123.078 25.8429C123.258 25.8429 123.427 25.8695 123.582 25.9229C123.738 25.9721 123.872 26.0501 123.983 26.1567C124.097 26.2593 124.188 26.3906 124.253 26.5506C124.319 26.7106 124.352 26.8973 124.352 27.1106C124.352 27.1927 124.348 27.2686 124.339 27.3383C124.331 27.4081 124.323 27.4594 124.315 27.4922H122.309C122.304 27.845 122.389 28.1097 122.561 28.2861C122.733 28.4584 122.973 28.5446 123.281 28.5446C123.466 28.5446 123.64 28.522 123.804 28.4769C123.968 28.4318 124.116 28.3559 124.247 28.2492V28.7969C124.145 28.879 124.001 28.9446 123.816 28.9938C123.636 29.039 123.433 29.0615 123.207 29.0615ZM123.761 27.086C123.753 26.9424 123.728 26.8214 123.687 26.7229C123.646 26.6245 123.593 26.5465 123.527 26.4891C123.461 26.4275 123.388 26.3844 123.306 26.3598C123.223 26.3311 123.137 26.3167 123.047 26.3167C122.85 26.3167 122.686 26.3783 122.555 26.5014C122.423 26.6245 122.339 26.8193 122.302 27.086H123.761ZM126.929 27.6584H125.606V29H125.015V25.9044H125.606V27.1476H126.929V25.9044H127.52V29H126.929V27.6584Z" fill="black"/>
</svg>
